<?xml version="1.0" encoding="UTF-8"?>
<svg id="Camada_2" xmlns="http://www.w3.org/2000/svg" version="1.1" viewBox="0 0 614.2 136.8">
  <!-- Generator: Adobe Illustrator 29.6.0, SVG Export Plug-In . SVG Version: 2.1.1 Build 91)  -->
  <defs>
    <style>
      .st0 {
        fill: #cda27b;
      }

      .st1 {
        fill: #cfa47d;
      }

      .st2 {
        fill: #1f1d2d;
      }
    </style>
  </defs>
  <g id="Camada_1-2">
    <g>
      <path class="st0" d="M203.1,112.8h0l-3,17.1h-3.3l5.3-27,8.9,20.4,8.9-20.4,5.3,27h-3.3l-3-17.1h0l-7.8,17.7-7.8-17.7h0Z"/>
      <path class="st0" d="M241.8,104h13.9v3h-10.7v7.3h10.4v3h-10.4v9.8h10.7v3h-13.9v-25.9h0Z"/>
      <path class="st0" d="M285,109c-1-1.6-2.2-2.4-4.2-2.4s-4.3,1.4-4.3,3.7,2,3.1,3.6,3.7l1.9.7c3.7,1.4,6.4,3.5,6.4,7.8s-3.6,8.1-8.3,8.1-7.5-3.1-8-7.3l3.3-.7c0,2.8,2.2,4.9,5,4.9s4.8-2.3,4.8-5.1-2.2-4-4.5-4.9l-1.8-.8c-3-1.3-5.6-3-5.6-6.6s3.7-6.7,7.6-6.7,5.3,1.4,6.7,3.9l-2.6,1.6h0Z"/>
      <path class="st0" d="M309.4,123.5l-3,6.5h-3.5l12.4-27,12.4,27h-3.5l-3-6.5h-11.9,0ZM315.3,110l-4.6,10.5h9.2l-4.6-10.5h0Z"/>
      <path class="st0" d="M355.1,109c-1-1.6-2.2-2.4-4.2-2.4s-4.3,1.4-4.3,3.7,2,3.1,3.6,3.7l1.9.7c3.7,1.4,6.4,3.5,6.4,7.8s-3.6,8.1-8.3,8.1-7.5-3.1-8-7.3l3.3-.7c0,2.8,2.2,4.9,5,4.9s4.8-2.3,4.8-5.1-2.2-4-4.5-4.9l-1.8-.8c-3-1.3-5.6-3-5.6-6.6s3.7-6.7,7.6-6.7,5.3,1.4,6.7,3.9l-2.6,1.6h0Z"/>
      <path class="st0" d="M399.3,104h5.4c8,0,14.5,4.2,14.5,12.8s-6.5,13.1-14.7,13.1h-5.3v-25.9h0ZM402.5,127h1.1c6.6,0,12.3-2.5,12.3-10s-5.7-10-12.3-10h-1.1v20h0Z"/>
      <path class="st0" d="M436.2,104h13.9v3h-10.7v7.3h10.4v3h-10.4v9.8h10.7v3h-13.9v-25.9h0Z"/>
      <path class="st0" d="M494.8,127h7.9v3h-11.1v-25.9h3.2v23h0Z"/>
      <path class="st0" d="M521.4,104v15.3c0,4.2,1.3,8.2,6.3,8.2s6.3-3.9,6.3-8.2v-15.3h3.2v16.4c0,5.7-3.5,10.1-9.5,10.1s-9.5-4.4-9.5-10.1v-16.4h3.2Z"/>
      <path class="st0" d="M553.9,104h3.7l5.3,9.5,5.6-9.5h3.7l-7.5,12.3,7.9,13.6h-3.6l-6.1-10.6-6.4,10.6h-3.6l8.2-13.6-7.2-12.3h0Z"/>
      <path class="st0" d="M614.2,117c0,7.7-6.1,13.5-13.6,13.5s-13.6-5.8-13.6-13.5,6.2-13.5,13.6-13.5,13.6,6.1,13.6,13.5ZM611,117c0-5.7-4.3-10.5-10.3-10.5s-10.3,4.8-10.3,10.5,4.8,10.5,10.3,10.5,10.3-4.6,10.3-10.5h0Z"/>
    </g>
    <path class="st1" d="M143.6,50.5h-38.5c-7.3,0-13.3,6-13.3,13.3v22h-6.3v-.7c0-7.3-6-13.3-13.3-13.3h-26.9v-6.6h6.5c7.3,0,13.3-6,13.3-13.3V13.3c0-7.3-6-13.3-13.3-13.3H13.3C6,0,0,6,0,13.3v38.5c0,7.3,6,13.3,13.3,13.3h23.3v6.6h-2.9c-7.4,0-13.3,6-13.3,13.3v38.5c0,7.4,6,13.3,13.3,13.3h38.5c7.3,0,13.3-6,13.3-13.3v-29.1h6.3v7.9c0,7.3,6,13.3,13.3,13.3h38.5c7.4,0,13.3-6,13.3-13.3v-38.5c0-7.3-6-13.3-13.3-13.3h0ZM8.6,51.8V13.3c0-2.6,2.1-4.7,4.7-4.7h38.5c2.6,0,4.7,2.1,4.7,4.7v38.5c0,2.6-2.1,4.7-4.7,4.7H13.3c-2.6,0-4.7-2.1-4.7-4.7h0ZM76.9,123.5c0,2.6-2.1,4.7-4.7,4.7h-38.5c-2.6,0-4.7-2.1-4.7-4.7v-38.5c0-2.6,2.1-4.7,4.7-4.7h38.5c2.6,0,4.7,2.1,4.7,4.7v38.5h0ZM148.2,102.3c0,2.6-2.1,4.7-4.7,4.7h-38.5c-2.6,0-4.7-2.1-4.7-4.7v-38.5c0-2.6,2.1-4.7,4.7-4.7h38.5c2.6,0,4.7,2.1,4.7,4.7v38.5Z"/>
    <g>
      <path class="st2" d="M247.8,14.1v9.8h-19.5v63.5h-12V23.9h-19.6v-9.8h51.1Z"/>
      <path class="st2" d="M293,83.4c-5.7-3.2-10.3-7.7-13.6-13.4-3.3-5.7-5-12.2-5-19.3s1.7-13.6,5-19.3,7.9-10.1,13.6-13.3c5.7-3.2,12-4.8,18.8-4.8s13.2,1.6,18.9,4.8c5.7,3.2,10.2,7.6,13.5,13.3,3.3,5.7,5,12.1,5,19.3s-1.6,13.6-5,19.3c-3.3,5.7-7.8,10.2-13.5,13.4s-12,4.8-18.9,4.8-13.1-1.6-18.8-4.8ZM324.8,74.4c3.8-2.2,6.8-5.4,8.9-9.5s3.2-8.9,3.2-14.3-1.1-10.2-3.2-14.2c-2.1-4.1-5.1-7.2-8.9-9.4-3.8-2.2-8.1-3.3-13-3.3s-9.2,1.1-13,3.3-6.8,5.3-8.9,9.4c-2.1,4.1-3.2,8.8-3.2,14.2s1.1,10.2,3.2,14.3,5.1,7.3,8.9,9.5,8.1,3.3,13,3.3,9.2-1.1,13-3.3Z"/>
      <path class="st2" d="M380.6,31.3c3.3-5.7,7.9-10.1,13.6-13.3,5.7-3.2,12-4.8,18.8-4.8s14.7,1.9,20.8,5.8c6.1,3.8,10.5,9.3,13.2,16.3h-14.5c-1.9-3.9-4.5-6.8-7.9-8.6-3.4-1.9-7.3-2.9-11.7-2.9s-9.2,1.1-13,3.3-6.8,5.3-8.9,9.4c-2.1,4.1-3.2,8.8-3.2,14.2s1.1,10.2,3.2,14.2c2.1,4.1,5.1,7.2,8.9,9.4s8.1,3.3,13,3.3,8.3-.9,11.7-2.8c3.4-1.9,6-4.8,7.9-8.7h14.5c-2.7,7-7.1,12.4-13.2,16.2-6.1,3.8-13,5.7-20.8,5.7s-13.2-1.6-18.9-4.8c-5.7-3.2-10.2-7.7-13.5-13.3-3.3-5.7-5-12.1-5-19.3s1.7-13.6,5-19.3h0Z"/>
      <path class="st2" d="M519.9,87.4l-28.4-32.8v32.8h-12V14.1h12v33.4l28.5-33.4h15.1l-31.9,36.7,32.4,36.6h-15.7,0Z"/>
      <path class="st2" d="M575.6,85.6c-3.9-1.7-7-4.2-9.3-7.3s-3.4-6.9-3.4-11.1h12.9c.3,3.2,1.5,5.8,3.7,7.8s5.3,3.1,9.3,3.1,7.4-1,9.7-3,3.5-4.6,3.5-7.8-.7-4.5-2.2-6c-1.4-1.5-3.2-2.7-5.4-3.6-2.2-.8-5.1-1.8-8.9-2.7-4.8-1.3-8.7-2.5-11.7-3.8-3-1.3-5.5-3.3-7.7-6.1-2.1-2.7-3.2-6.4-3.2-11s1-7.9,3.2-11.1c2.1-3.2,5.1-5.6,8.9-7.3s8.2-2.5,13.2-2.5c7.1,0,12.9,1.8,17.5,5.3,4.5,3.5,7,8.4,7.5,14.6h-13.3c-.2-2.7-1.5-5-3.8-6.9-2.3-1.9-5.4-2.9-9.2-2.9s-6.3.9-8.4,2.6-3.3,4.3-3.3,7.6.7,4.1,2.1,5.5c1.4,1.4,3.1,2.6,5.2,3.4,2.1.8,5,1.8,8.7,2.7,4.8,1.3,8.8,2.7,11.9,4s5.7,3.4,7.8,6.2c2.1,2.8,3.2,6.5,3.2,11.1s-1,7.2-3,10.5-4.9,6-8.8,8-8.3,3-13.5,3-9.3-.9-13.3-2.6h0Z"/>
    </g>
  </g>
</svg>