<?xml version="1.0" encoding="UTF-8"?>
<svg id="Camada_2" xmlns="http://www.w3.org/2000/svg" viewBox="0 0 643.69 561.35">
  <defs>
    <style>
      .cls-1 {
        fill: #cfa47d;
      }
    </style>
  </defs>
  <g id="Camada_1-2" data-name="Camada_1">
    <path class="cls-1" d="M589.02,207.03h-157.86c-30.14,0-54.67,24.52-54.67,54.67v90.04h-25.7v-2.91c0-30.14-24.52-54.67-54.67-54.67h-110.34v-26.97h26.73c30.14,0,54.67-24.52,54.67-54.66V54.67c0-30.14-24.52-54.67-54.67-54.67H54.67C24.52,0,0,24.52,0,54.67v157.86c0,30.14,24.52,54.66,54.67,54.66h95.66v26.97h-12.05c-30.14,0-54.67,24.52-54.67,54.67v157.86c0,30.14,24.52,54.67,54.67,54.67h157.86c30.14,0,54.67-24.52,54.67-54.67v-119.48h25.7v32.35c0,30.14,24.52,54.67,54.67,54.67h157.86c30.14,0,54.67-24.52,54.67-54.67v-157.86c0-30.14-24.52-54.67-54.67-54.67ZM35.47,212.53V54.67c0-10.59,8.61-19.2,19.2-19.2h157.86c10.59,0,19.2,8.61,19.2,19.2v157.86c0,10.59-8.61,19.2-19.2,19.2H54.67c-10.59,0-19.2-8.61-19.2-19.2ZM315.33,506.68c0,10.59-8.61,19.2-19.2,19.2h-157.86c-10.59,0-19.2-8.61-19.2-19.2v-157.86c0-10.59,8.61-19.2,19.2-19.2h157.86c10.59,0,19.2,8.61,19.2,19.2v157.86ZM608.22,419.55c0,10.59-8.61,19.2-19.2,19.2h-157.86c-10.59,0-19.2-8.61-19.2-19.2v-157.86c0-10.59,8.61-19.2,19.2-19.2h157.86c10.59,0,19.2,8.61,19.2,19.2v157.86Z"/>
  </g>
</svg>