<?xml version="1.0" encoding="UTF-8"?>
<svg id="Camada_2" xmlns="http://www.w3.org/2000/svg" viewBox="0 0 2522.59 561.35">
  <defs>
    <style>
      .cls-1 {
        fill: #cda27b;
      }

      .cls-2 {
        fill: #cfa47d;
      }

      .cls-3 {
        fill: #f5f5f5;
      }
    </style>
  </defs>
  <g id="Camada_1-2" data-name="Camada_1">
    <g>
      <g>
        <path class="cls-3" d="M953.99,125.49c-10.24-17.19-23.41-25.97-44.26-25.97-21.95,0-46.09,15-46.09,39.14,0,21.58,21.22,32.92,38.41,39.51l19.75,7.68c39.14,15.36,68.41,36.95,68.41,83.04,0,50.12-38.78,85.96-88.16,85.96-44.63,0-79.38-32.92-85.23-77.18l34.75-7.32c-.37,30.36,23.78,52.31,53.41,52.31s50.85-24.87,50.85-53.77-23.78-42.43-47.56-52.31l-19.02-8.05c-31.46-13.53-59.99-31.46-59.99-69.87,0-44.63,39.51-71.33,81.21-71.33,30.73,0,55.97,15,70.97,41.7l-27.44,16.46Z"/>
        <path class="cls-3" d="M1325.65,73.17h44.99l-124.01,124.01,126.21,151.81h-46.46l-103.89-128.4-13.9,13.17v115.23h-34.39V73.17h34.39v119.62l117.06-119.62Z"/>
        <path class="cls-3" d="M1579.16,279.86l-31.46,69.14h-36.95l131.69-287.53,131.69,287.53h-36.95l-31.46-69.14h-126.57ZM1642.45,136.83l-49.02,111.57h98.04l-49.02-111.57Z"/>
        <path class="cls-3" d="M2115.07,349h-41.7l-81.21-116.69h-14.27v116.69h-34.39V73.17h41.7c24.51,0,50.85.37,72.8,12.81,23.05,13.53,36.22,39.51,36.22,65.84,0,39.51-26.34,72.43-66.21,77.19l87.06,119.99ZM1977.89,203.77h10.97c35.12,0,73.16-6.59,73.16-50.48s-40.97-49.38-74.99-49.38h-9.15v99.87Z"/>
        <path class="cls-3" d="M2327.61,279.86l-31.46,69.14h-36.95l131.69-287.53,131.69,287.53h-36.95l-31.46-69.14h-126.57ZM2390.9,136.83l-49.02,111.57h98.04l-49.02-111.57Z"/>
      </g>
      <g>
        <path class="cls-1" d="M833.34,462.96h-.28l-12.42,70.29h-13.69l21.74-110.94,36.56,83.84,36.56-83.84,21.74,110.94h-13.69l-12.42-70.29h-.28l-31.9,72.55-31.9-72.55Z"/>
        <path class="cls-1" d="M991.83,426.83h57.16v12.14h-43.9v29.78h42.62v12.14h-42.62v40.23h43.9v12.14h-57.16v-106.42Z"/>
        <path class="cls-1" d="M1169.1,447.02c-3.95-6.63-9.03-10.02-17.08-10.02-8.47,0-17.78,5.79-17.78,15.1,0,8.33,8.19,12.7,14.82,15.24l7.62,2.96c15.1,5.93,26.39,14.26,26.39,32.04,0,19.34-14.96,33.17-34.02,33.17-17.22,0-30.63-12.7-32.89-29.78l13.41-2.82c-.14,11.71,9.17,20.18,20.61,20.18s19.62-9.6,19.62-20.75-9.17-16.37-18.35-20.18l-7.34-3.1c-12.14-5.22-23.15-12.14-23.15-26.96,0-17.22,15.24-27.52,31.33-27.52,11.86,0,21.59,5.79,27.38,16.09l-10.59,6.35Z"/>
        <path class="cls-1" d="M1269.16,506.58l-12.14,26.68h-14.26l50.81-110.94,50.81,110.94h-14.26l-12.14-26.68h-48.84ZM1293.58,451.39l-18.91,43.05h37.83l-18.91-43.05Z"/>
        <path class="cls-1" d="M1457.02,447.02c-3.95-6.63-9.03-10.02-17.08-10.02-8.47,0-17.78,5.79-17.78,15.1,0,8.33,8.19,12.7,14.82,15.24l7.62,2.96c15.1,5.93,26.39,14.26,26.39,32.04,0,19.34-14.96,33.17-34.02,33.17-17.22,0-30.63-12.7-32.89-29.78l13.41-2.82c-.14,11.71,9.17,20.18,20.61,20.18s19.62-9.6,19.62-20.75-9.17-16.37-18.35-20.18l-7.34-3.1c-12.14-5.22-23.15-12.14-23.15-26.96,0-17.22,15.24-27.52,31.33-27.52,11.86,0,21.6,5.79,27.38,16.09l-10.59,6.35Z"/>
        <path class="cls-1" d="M1638.09,426.83h22.02c32.6,0,59.7,17.22,59.7,52.65s-26.53,53.78-60.13,53.78h-21.59v-106.42ZM1651.36,521.12h4.66c27.1,0,50.53-10.16,50.53-41.07s-23.43-41.07-50.53-41.07h-4.66v82.15Z"/>
        <path class="cls-1" d="M1789.53,426.83h57.16v12.14h-43.9v29.78h42.63v12.14h-42.63v40.23h43.9v12.14h-57.16v-106.42Z"/>
        <path class="cls-1" d="M2030.03,521.12h32.32v12.14h-45.59v-106.42h13.27v94.28Z"/>
        <path class="cls-1" d="M2138.98,426.83v62.81c0,17.36,5.22,33.45,25.69,33.45s25.69-16.09,25.69-33.45v-62.81h13.27v67.33c0,23.43-14.54,41.35-38.96,41.35s-38.96-17.92-38.96-41.35v-67.33h13.27Z"/>
        <path class="cls-1" d="M2272.36,426.83h15.1l21.74,38.81,23.15-38.81h15.1l-30.63,50.67,32.32,55.75h-14.82l-25.12-43.61-26.11,43.61h-14.82l33.45-55.75-29.36-50.67Z"/>
        <path class="cls-1" d="M2519.91,480.04c0,31.62-24.98,55.47-55.75,55.47s-55.75-23.85-55.75-55.47,25.26-55.47,55.75-55.47,55.75,24.98,55.75,55.47ZM2506.65,480.04c0-23.43-17.5-43.05-42.48-43.05s-42.48,19.62-42.48,43.05,19.48,43.05,42.48,43.05,42.48-18.77,42.48-43.05Z"/>
      </g>
      <path class="cls-2" d="M589.02,207.03h-157.86c-30.14,0-54.67,24.52-54.67,54.67v90.04h-25.7v-2.91c0-30.14-24.52-54.67-54.67-54.67h-110.34v-26.97h26.73c30.14,0,54.67-24.52,54.67-54.66V54.67c0-30.14-24.52-54.67-54.67-54.67H54.67C24.52,0,0,24.52,0,54.67v157.86c0,30.14,24.52,54.66,54.67,54.66h95.66v26.97h-12.05c-30.14,0-54.67,24.52-54.67,54.67v157.86c0,30.14,24.52,54.67,54.67,54.67h157.86c30.14,0,54.67-24.52,54.67-54.67v-119.48h25.7v32.35c0,30.14,24.52,54.67,54.67,54.67h157.86c30.14,0,54.67-24.52,54.67-54.67v-157.86c0-30.14-24.52-54.67-54.67-54.67ZM35.47,212.53V54.67c0-10.59,8.61-19.2,19.2-19.2h157.86c10.59,0,19.2,8.61,19.2,19.2v157.86c0,10.59-8.61,19.2-19.2,19.2H54.67c-10.59,0-19.2-8.61-19.2-19.2ZM315.33,506.68c0,10.59-8.61,19.2-19.2,19.2h-157.86c-10.59,0-19.2-8.61-19.2-19.2v-157.86c0-10.59,8.61-19.2,19.2-19.2h157.86c10.59,0,19.2,8.61,19.2,19.2v157.86ZM608.22,419.55c0,10.59-8.61,19.2-19.2,19.2h-157.86c-10.59,0-19.2-8.61-19.2-19.2v-157.86c0-10.59,8.61-19.2,19.2-19.2h157.86c10.59,0,19.2,8.61,19.2,19.2v157.86Z"/>
    </g>
  </g>
</svg>