<?xml version="1.0" encoding="UTF-8"?>
<svg id="Camada_2" xmlns="http://www.w3.org/2000/svg" viewBox="0 0 3469.86 552.76">
  <defs>
    <style>
      .cls-1 {
        fill: #cfa47d;
      }

      .cls-2 {
        fill: #1f1d2d;
      }
    </style>
  </defs>
  <g id="Camada_1-2" data-name="Camada_1">
    <g>
      <path class="cls-2" d="M1022.26,162.54c-15.98-26.83-36.53-40.53-69.07-40.53-34.25,0-71.92,23.4-71.92,61.07,0,33.68,33.11,51.37,59.93,61.65l30.82,11.99c61.07,23.97,106.74,57.65,106.74,129.57,0,78.2-60.51,134.14-137.56,134.14-69.64,0-123.86-51.37-133-120.44l54.23-11.42c-.57,47.38,37.1,81.63,83.34,81.63s79.34-38.81,79.34-83.91-37.1-66.21-74.2-81.62l-29.68-12.56c-49.09-21.12-93.61-49.09-93.61-109.02,0-69.64,61.65-111.31,126.72-111.31,47.95,0,87.33,23.4,110.74,65.07l-42.81,25.68Z"/>
      <path class="cls-2" d="M1602.19,80.92h70.21l-193.5,193.5,196.93,236.88h-72.49l-162.11-200.35-21.69,20.55v179.8h-53.66V80.92h53.66v186.65l182.66-186.65Z"/>
      <path class="cls-2" d="M1997.76,403.42l-49.09,107.88h-57.65l205.49-448.65,205.49,448.65h-57.65l-49.09-107.88h-197.5ZM2096.51,180.24l-76.49,174.09h152.97l-76.49-174.09Z"/>
      <path class="cls-2" d="M2833.98,511.3h-65.07l-126.72-182.09h-22.26v182.09h-53.66V80.92h65.07c38.24,0,79.34.57,113.59,19.98,35.96,21.12,56.51,61.65,56.51,102.74,0,61.65-41.1,113.02-103.32,120.44l135.85,187.22ZM2619.93,284.7h17.12c54.8,0,114.16-10.28,114.16-78.77s-63.93-77.06-117.01-77.06h-14.27v155.83Z"/>
      <path class="cls-2" d="M3165.63,403.42l-49.09,107.88h-57.65l205.49-448.65,205.49,448.65h-57.65l-49.09-107.88h-197.5ZM3264.37,180.24l-76.49,174.09h152.97l-76.49-174.09Z"/>
    </g>
    <path class="cls-1" d="M580,203.86h-155.44c-29.68,0-53.83,24.15-53.83,53.83v88.66h-25.31v-2.86c0-29.68-24.15-53.83-53.83-53.83h-108.65v-26.56h26.32c29.68,0,53.83-24.15,53.83-53.83V53.83c0-29.68-24.15-53.83-53.83-53.83H53.83C24.15,0,0,24.15,0,53.83v155.44c0,29.68,24.15,53.83,53.83,53.83h94.19v26.56h-11.87c-29.68,0-53.83,24.15-53.83,53.83v155.44c0,29.68,24.15,53.83,53.83,53.83h155.44c29.68,0,53.83-24.15,53.83-53.83v-117.66h25.31v31.85c0,29.68,24.15,53.83,53.83,53.83h155.44c29.68,0,53.83-24.15,53.83-53.83v-155.44c0-29.68-24.15-53.83-53.83-53.83ZM34.92,209.27V53.83c0-10.42,8.48-18.91,18.91-18.91h155.44c10.42,0,18.91,8.48,18.91,18.91v155.44c0,10.42-8.48,18.9-18.91,18.9H53.83c-10.42,0-18.91-8.48-18.91-18.9ZM310.5,498.93c0,10.42-8.48,18.91-18.91,18.91h-155.44c-10.42,0-18.91-8.48-18.91-18.91v-155.44c0-10.42,8.48-18.91,18.91-18.91h155.44c10.42,0,18.91,8.48,18.91,18.91v155.44ZM598.91,413.13c0,10.42-8.48,18.91-18.9,18.91h-155.44c-10.42,0-18.9-8.48-18.9-18.91v-155.44c0-10.42,8.48-18.91,18.9-18.91h155.44c10.42,0,18.9,8.48,18.9,18.91v155.44Z"/>
  </g>
</svg>