<?xml version="1.0" encoding="UTF-8"?>
<svg id="Camada_2" data-name="Camada 2" xmlns="http://www.w3.org/2000/svg" viewBox="0 0 1835.51 480.8">
  <defs>
    <style>
      .cls-1 {
        fill: #fff;
        stroke-width: 0px;
      }
    </style>
  </defs>
  <g id="Camada_1-2" data-name="Camada 1">
    <g>
      <g>
        <path class="cls-1" d="M601.46,110.61v166.46h133.24v9.99h-133.24v183.69h149.45v9.99h-192.75V100.62h192.75v9.99h-149.45Z"/>
        <path class="cls-1" d="M1043.75,110.61h-117.13v370.13h-43.3V110.61h-117.13v-9.99h277.56v9.99Z"/>
        <path class="cls-1" d="M1411.7,284.22c0,205.44-202.32,196.52-220.95,196.52h-128.23V100.62h156.99c69.88,0,192.2,18.43,192.19,183.59ZM1367.29,284.22c0-147.95-102.08-173.2-170.78-173.2h-90.69v359.74h84.15c82.89,0,177.32-38.59,177.32-186.54Z"/>
        <path class="cls-1" d="M147.84,277.93c41.66-10.86,88.65-36.43,88.65-96.45,0-76.45-94.34-80.85-121.58-80.85H0v380.12h104.07c16.52,0,145.74-2.74,145.74-105.74,0-65.59-50.22-90.37-101.97-97.07ZM76.48,470.75h-33.18v-184.87h0v-9.99h0V110.46h48.67c58.46,0,98.99,18.57,98.99,77.72s-43.55,87.72-114.48,87.72h-21.08v9.99h36.57c92.14,0,112.32,47.31,112.32,95.82,0,71.51-58.34,89.05-127.8,89.05Z"/>
        <path class="cls-1" d="M396.77,301.7c44.91-6.14,112.45-28.04,112.45-106.13,0-83.55-90.63-95.1-121.58-95.1-29.26,0-114.91.16-114.91.16v380.12h43.3v-176.65h0v-9.99h0V110.46h48.67c62.16,0,99,25.56,99,91.82s-43.55,91.83-114.48,91.83h-21.08v9.99h15.85l140.24,176.65h54.69l-142.14-179.04Z"/>
        <polygon class="cls-1" points="1569.63 93.25 1566.3 93.25 1393.91 480.74 1407.69 480.74 1475.68 327.92 1475.72 327.92 1480.16 317.93 1480.12 317.93 1551.02 158.58 1619.3 317.93 1493.4 317.93 1488.96 327.92 1623.58 327.92 1689.05 480.74 1735.65 480.74 1569.63 93.25"/>
      </g>
      <path class="cls-1" d="M1742.28,0l-93.23,93.23,93.23,93.23,93.23-93.23L1742.28,0ZM1666.02,93.23l70.26-70.26v70.26h12V22.97l70.26,70.26-76.26,76.26-76.26-76.26Z"/>
    </g>
  </g>
</svg>