<?xml version="1.0" encoding="UTF-8"?>
<svg id="Camada_2" xmlns="http://www.w3.org/2000/svg" viewBox="0 0 1735.65 387.55">
  <defs>
    <style>
      .cls-1 {
        fill: #fff;
        stroke-width: 0px;
      }
    </style>
  </defs>
  <g id="Camada_1-2" data-name="Camada_1">
    <g>
      <path class="cls-1" d="M601.47,17.37v166.46h133.24v9.99h-133.24v183.69h149.45v9.99h-192.75V7.38h192.75v9.99h-149.45Z"/>
      <path class="cls-1" d="M1043.75,17.37h-117.13v370.13h-43.3V17.37h-117.13V7.38h277.56v9.99Z"/>
      <path class="cls-1" d="M1411.7,190.97c0,205.44-202.32,196.52-220.95,196.52h-128.23V7.38h156.99c69.88,0,192.2,18.43,192.19,183.59ZM1367.29,190.97c0-147.95-102.08-173.2-170.78-173.2h-90.69v359.74h84.15c82.89,0,177.32-38.59,177.32-186.54h0Z"/>
      <path class="cls-1" d="M147.84,184.68c41.66-10.86,88.65-36.43,88.65-96.45C236.49,11.78,142.15,7.38,114.91,7.38H0v380.12h104.07c16.52,0,145.74-2.74,145.74-105.74,0-65.59-50.22-90.37-101.97-97.07h0ZM76.48,377.51h-33.18v-184.87h0v-9.99h0V17.21h48.67c58.46,0,98.99,18.57,98.99,77.72s-43.55,87.72-114.48,87.72h-21.08v9.99h36.57c92.14,0,112.32,47.31,112.32,95.82,0,71.51-58.34,89.05-127.8,89.05h0Z"/>
      <path class="cls-1" d="M396.78,208.45c44.91-6.14,112.45-28.04,112.45-106.13,0-83.55-90.63-95.1-121.58-95.1-29.26,0-114.91.16-114.91.16v380.12h43.3v-176.65h0v-9.99h0V17.22h48.67c62.16,0,99,25.56,99,91.82s-43.55,91.83-114.48,91.83h-21.08v9.99h15.85l140.24,176.65h54.69l-142.14-179.04v-.02Z"/>
      <polygon class="cls-1" points="1569.64 0 1566.3 0 1393.91 387.49 1407.7 387.49 1475.68 234.67 1475.72 234.67 1480.17 224.68 1480.13 224.68 1551.02 65.33 1619.3 224.68 1493.41 224.68 1488.96 234.67 1623.58 234.67 1689.06 387.49 1735.65 387.49 1569.64 0"/>
    </g>
  </g>
</svg>